<?xml version="1.0" encoding="UTF-8"?>
<svg width="80" height="80" version="1.1" viewBox="0 0 80 80" xmlns="http://www.w3.org/2000/svg">
 <path d="m350.57 82.387c-5.0234-0.015625-5.9453 0.91406-7.3594 1.4492-1.4141 0.55859-2.5508 1.0508-3.7656 1.6484-2.4336 1.1953-5.043 2.6445-7.9766 4.3281-5.8711 3.3633-12.93 7.6562-19.957 12.004-7.0273 4.3438-14.004 8.7461-19.43 12.109-2.7148 1.6797-5.0625 3.1016-6.7383 4.0977-0.55859 0.3125-1.0391 0.55859-1.5391 0.82031 1.0195-0.3125 1.6172-0.49609 0.019531 0.125-1.6328 0.67188-1.0156 0.375-0.019531-0.125-0.55859 0.1875-1.0898 0.375-1.7422 0.49609-1.8906 0.49609-4.5625 1.0938-7.6758 1.8047-6.2188 1.4258-14.234 3.2109-22.289 5.0625-8.0547 1.8477-16.109 3.7656-22.648 5.5039-3.2695 0.87109-6.1367 1.6758-8.707 2.5391-1.2812 0.4375-2.4883 0.84766-3.8711 1.457-1.3828 0.62109-2.6719 0.62109-6.2305 4.1406-3.5625 3.543-3.5625 4.832-4.1758 6.207-0.62109 1.375-1.0469 2.5781-1.4805 3.8594-0.87891 2.5664-1.6992 5.4297-2.5898 8.6914-1.7734 6.5312-3.7422 14.574-5.6328 22.613-1.8984 8.043-3.7344 16.047-5.1914 22.258-0.72656 3.1055-1.3711 5.7695-1.8477 7.6641-0.1875 0.66016-0.375 1.2031-0.49609 1.7422 0.49609-0.98828 0.82031-1.6133 0.125 0.019532-0.66797 1.5938-0.4375 0.99609-0.125-0.019532-0.25 0.49609-0.49609 0.97266-0.82812 1.5312-1.0078 1.668-2.4414 4.0078-4.1406 6.7109-3.3945 5.4023-7.8359 12.359-12.223 19.359-4.3906 7.0039-8.7227 14.031-12.117 19.887-1.6992 2.9258-3.1641 5.5273-4.375 7.9531-0.62109 1.2148-1.125 2.3477-1.668 3.7539-0.55859 1.4062-1.4766 2.3281-1.4922 7.3516-0.015625 5.0234 0.91016 5.9453 1.4492 7.3594 0.55859 1.4141 1.0508 2.5508 1.6484 3.7656 1.1953 2.4336 2.6445 5.043 4.3281 7.9766 3.3633 5.8711 7.6562 12.93 12.004 19.957 4.3438 7.0273 8.75 14.004 12.109 19.43 1.6797 2.7148 3.1016 5.0625 4.0977 6.7383 0.3125 0.55859 0.55859 1.0391 0.82031 1.5312-0.3125-1.0156-0.49609-1.6133 0.125-0.019531 0.67188 1.6328 0.375 1.0156-0.125 0.019531 0.1875 0.55859 0.375 1.0898 0.49609 1.75 0.49609 1.8906 1.0938 4.5625 1.8047 7.6758 1.4258 6.2188 3.2109 14.234 5.0625 22.289 1.8477 8.0547 3.7656 16.109 5.5039 22.648 0.87109 3.2695 1.6797 6.1367 2.5391 8.707 0.4375 1.2812 0.85156 2.4883 1.4648 3.8711 0.62109 1.3828 0.62109 2.6719 4.1406 6.2305 3.543 3.5625 4.832 3.5625 6.207 4.1758 1.375 0.62109 2.5781 1.0469 3.8594 1.4805 2.5664 0.87891 5.4297 1.6992 8.6914 2.5898 6.5312 1.7734 14.574 3.7422 22.613 5.6328 8.043 1.8984 16.047 3.7344 22.258 5.1914 3.1055 0.72656 5.7695 1.3711 7.6641 1.8477 0.66016 0.1875 1.2031 0.375 1.7422 0.49609-0.98828-0.49609-1.6133-0.82031 0.019531-0.125 1.5938 0.66797 0.99609 0.4375-0.019531 0.125 0.49609 0.25 0.97266 0.49609 1.5312 0.82812 1.668 1.0078 4.0078 2.4414 6.7109 4.1406 5.4023 3.3945 12.355 7.8359 19.359 12.223 7.0039 4.3906 14.031 8.7266 19.887 12.121 2.9258 1.6992 5.5273 3.1641 7.9531 4.375 1.2148 0.62109 2.3477 1.125 3.7539 1.668 1.4062 0.55859 2.3281 1.4766 7.3516 1.4922s5.9453-0.91016 7.3594-1.4492c1.4141-0.55859 2.5508-1.0508 3.7656-1.6484 2.4336-1.1953 5.043-2.6445 7.9766-4.3281 5.8711-3.3633 12.926-7.6562 19.953-12.004 7.0273-4.3438 14.008-8.7461 19.43-12.109 2.7148-1.6797 5.0625-3.1016 6.7344-4.1016 0.55859-0.3125 1.0391-0.55859 1.5312-0.82031-1.0156 0.3125-1.6133 0.49609-0.019531-0.125 1.6328-0.67188 1.0156-0.375 0.019531 0.125 0.55859-0.1875 1.0898-0.375 1.75-0.49609 1.8906-0.49609 4.5625-1.0938 7.6758-1.8047 6.2188-1.4258 14.234-3.2109 22.289-5.0625 8.0547-1.8477 16.109-3.7656 22.648-5.5039 3.2695-0.87109 6.1367-1.6758 8.707-2.5391 1.2812-0.4375 2.4883-0.85156 3.8711-1.457 1.3828-0.62109 2.6719-0.62109 6.2344-4.1406 3.5625-3.543 3.5625-4.832 4.1758-6.207 0.62109-1.375 1.0469-2.5781 1.4805-3.8594 0.87891-2.5664 1.6992-5.4297 2.5898-8.6914 1.7734-6.5312 3.7422-14.574 5.6328-22.613 1.8984-8.043 3.7344-16.047 5.1914-22.258 0.72656-3.1055 1.3711-5.7695 1.8477-7.6641 0.1875-0.66016 0.375-1.2031 0.49609-1.7422-0.49609 0.98828-0.82031 1.6133-0.125-0.019532 0.66797-1.5938 0.49609-0.99609 0.125 0.019532 0.25-0.49609 0.49609-0.97266 0.82812-1.5312 1.0078-1.668 2.4414-4.0078 4.1406-6.7109 3.3945-5.4023 7.8359-12.359 12.223-19.359 4.3906-7.0039 8.7227-14.031 12.121-19.887 1.6992-2.9258 3.1641-5.5273 4.3711-7.9531 0.62109-1.2148 1.125-2.3477 1.668-3.7539 0.55859-1.4062 1.4766-2.3281 1.4922-7.3516 0.015625-5.0234-0.91016-5.9453-1.4492-7.3594-0.55859-1.4141-1.0508-2.5508-1.6484-3.7656-1.1953-2.4336-2.6445-5.043-4.3281-7.9766-3.3633-5.8711-7.6562-12.926-12.004-19.957-4.3438-7.0273-8.75-14.008-12.109-19.43-1.6797-2.7148-3.1016-5.0625-4.0977-6.7344-0.3125-0.55859-0.55859-1.0391-0.82031-1.5391 0.3125 1.0195 0.49609 1.6172-0.125 0.019531-0.67187-1.6328-0.375-1.0156 0.125-0.019531-0.1875-0.55859-0.375-1.0898-0.49609-1.75-0.49609-1.8906-1.0938-4.5625-1.8047-7.6758-1.4258-6.2188-3.2109-14.234-5.0625-22.289-1.8477-8.0547-3.7656-16.105-5.5039-22.645-0.87109-3.2695-1.6758-6.1367-2.5391-8.707-0.4375-1.2812-0.84766-2.4883-1.4648-3.8711-0.62109-1.3828-0.62109-2.6719-4.1406-6.2305-3.543-3.5625-4.832-3.5625-6.207-4.1758-1.375-0.62109-2.582-1.0469-3.8594-1.4805-2.5664-0.87891-5.4297-1.6992-8.6914-2.5898-6.5312-1.7734-14.574-3.7422-22.613-5.6328-8.043-1.8984-16.047-3.7344-22.258-5.1914-3.1055-0.72656-5.7695-1.3711-7.6641-1.8477-0.65234-0.1875-1.2031-0.375-1.7422-0.49609 0.98828 0.49609 1.6055 0.82031-0.023438 0.125-1.5938-0.66797-0.99609-0.4375 0.023438-0.125-0.49609-0.25-0.97656-0.49609-1.5312-0.83594-1.668-1.0078-4.0078-2.4414-6.7109-4.1406-5.4023-3.3945-12.359-7.8359-19.359-12.223-7-4.3906-14.031-8.7227-19.887-12.121-2.9258-1.6992-5.5273-3.1641-7.9492-4.3711-1.2148-0.62109-2.3477-1.125-3.7539-1.668-1.4062-0.55859-2.3281-1.4766-7.3516-1.4922zm-0.125 34.59c0.93359 0.49609 1.5078 0.80859 2.6211 1.457 5.1914 3.0117 12.066 7.2422 18.941 11.551s13.773 8.6992 19.316 12.18c2.7695 1.7422 5.2031 3.25 7.1953 4.457 1.9922 1.2031 2.2773 1.6562 5.8516 3.1484 3.5742 1.4922 4.1094 1.3555 6.3633 1.9297 2.2539 0.55859 5.043 1.25 8.2305 2 6.375 1.4922 14.344 3.3125 22.238 5.1719 7.8984 1.8594 15.734 3.7617 21.523 5.3359 1.2461 0.3125 1.8477 0.55859 2.875 0.87109 0.3125 1.0273 0.49609 1.6328 0.85156 2.8828 1.543 5.8008 3.3945 13.648 5.2109 21.555 1.8164 7.9062 3.5781 15.887 5.043 22.266 0.72656 3.1953 1.3945 5.9805 1.9492 8.2422 0.55859 2.2578 0.4375 2.7891 1.8906 6.3711 1.4688 3.5781 1.9219 3.8711 3.1133 5.8711 1.1875 2 2.6875 4.4375 4.4141 7.2188 3.4492 5.5664 7.8008 12.488 12.066 19.391 4.2656 6.8984 8.457 13.801 11.438 19.008 0.64062 1.1211 0.93359 1.6914 1.4453 2.6328-0.49609 0.93359-0.80859 1.5078-1.457 2.6211-3.0117 5.1914-7.2422 12.066-11.551 18.941-4.3086 6.875-8.6992 13.773-12.18 19.316-1.7422 2.7695-3.25 5.2031-4.457 7.1953-1.2031 1.9922-1.6562 2.2773-3.1484 5.8516-1.4922 3.5742-1.3555 4.1094-1.9297 6.3633-0.55859 2.2539-1.25 5.043-2 8.2305-1.4922 6.375-3.3125 14.34-5.1719 22.238-1.8594 7.8945-3.7617 15.734-5.3359 21.523-0.3125 1.25-0.55859 1.8477-0.87109 2.875-1.0273 0.3125-1.6328 0.49609-2.8828 0.85156-5.8008 1.543-13.648 3.3984-21.555 5.2109-7.9062 1.8164-15.887 3.5781-22.27 5.043-3.1953 0.72656-5.9805 1.3945-8.2422 1.9531-2.2578 0.55859-2.7891 0.4375-6.3711 1.8906-3.5781 1.4688-3.8711 1.9219-5.8711 3.1133-2 1.1875-4.4375 2.6875-7.2188 4.4141-5.5664 3.4492-12.488 7.8008-19.391 12.066-6.8984 4.2695-13.801 8.457-19.008 11.438-1.1211 0.64062-1.6914 0.92578-2.6328 1.4453-0.93359-0.49609-1.5078-0.80859-2.6211-1.457-5.1914-3.0117-12.066-7.2422-18.941-11.547-6.875-4.3086-13.773-8.6992-19.316-12.18-2.7695-1.7422-5.2031-3.25-7.1953-4.457-1.9922-1.2031-2.2773-1.6562-5.8516-3.1484-3.5742-1.4922-4.1094-1.3555-6.3633-1.9297-2.2539-0.55859-5.043-1.25-8.2305-2-6.375-1.4922-14.34-3.3125-22.238-5.1719-7.8945-1.8594-15.73-3.7617-21.523-5.3359-1.25-0.3125-1.8477-0.55859-2.875-0.87109-0.3125-1.0273-0.49609-1.6328-0.85156-2.8828-1.543-5.7969-3.3945-13.648-5.2109-21.555s-3.5781-15.887-5.043-22.27c-0.72656-3.1953-1.3945-5.9805-1.9531-8.2422-0.55859-2.2578-0.4375-2.7891-1.8906-6.3711-1.4688-3.5781-1.9219-3.8711-3.1133-5.8711-1.1875-2-2.6875-4.4375-4.4141-7.2188-3.4492-5.5664-7.8008-12.488-12.066-19.391-4.2695-6.8984-8.457-13.801-11.438-19.008-0.64062-1.1211-0.92578-1.6914-1.4453-2.6328 0.49609-0.93359 0.80859-1.5078 1.457-2.6211 3.0117-5.1914 7.2422-12.066 11.551-18.941s8.6992-13.773 12.18-19.316c1.7422-2.7695 3.25-5.2031 4.457-7.1953 1.2031-1.9922 1.6562-2.2773 3.1484-5.8516 1.4922-3.5742 1.3555-4.1016 1.9297-6.3633 0.55859-2.2539 1.25-5.043 2-8.2305 1.4922-6.375 3.3125-14.34 5.1719-22.238 1.8594-7.8984 3.7617-15.734 5.3359-21.523 0.3125-1.2461 0.55859-1.8477 0.87109-2.875 1.0273-0.3125 1.6328-0.49609 2.8828-0.85156 5.8008-1.543 13.645-3.3984 21.555-5.2109 7.9062-1.8164 15.887-3.5781 22.27-5.043 3.1953-0.72656 5.9805-1.3945 8.2422-1.9531 2.2578-0.55859 2.7891-0.4375 6.3711-1.8906 3.5781-1.4688 3.8711-1.9219 5.8711-3.1133 2-1.1875 4.4375-2.6875 7.2188-4.4141 5.5664-3.4492 12.488-7.8008 19.391-12.066 6.8984-4.2656 13.801-8.457 19.008-11.438 1.1211-0.64062 1.6914-0.92578 2.6328-1.4453zm70.715 92.508h0.003907c-4.3633 0.25-8.4453 2.2266-11.352 5.4883l-80.293 90.113-34.734-29.645h-0.003906c-3.3203-2.8359-7.6328-4.2344-11.988-3.8906s-8.3945 2.4023-11.23 5.7266c-2.8359 3.3242-4.2344 7.6367-3.8906 11.992s2.4023 8.3945 5.7266 11.23l47 40.113c3.2773 2.7969 7.5195 4.1992 11.816 3.9062s8.3086-2.2578 11.176-5.4727l91.02-102.15c2.9062-3.2617 4.3945-7.5469 4.1445-11.906-0.25391-4.3633-2.2266-8.4453-5.4883-11.352-3.2617-2.9062-7.543-4.3945-11.906-4.1445z"/>
</svg>
